<?xml version="1.0" encoding="UTF-8" standalone="no"?>
<svg width="227px" height="227px" viewBox="0 0 227 227" version="1.1" xmlns="http://www.w3.org/2000/svg" xmlns:xlink="http://www.w3.org/1999/xlink" xmlns:sketch="http://www.bohemiancoding.com/sketch/ns">
    <!-- Generator: Sketch 3.4.4 (17249) - http://www.bohemiancoding.com/sketch -->
    <title>Group</title>
    <desc>Created with Sketch.</desc>
    <defs></defs>
    <g id="Page-1" stroke="none" stroke-width="1" fill="none" fill-rule="evenodd" sketch:type="MSPage">
        <g id="Group" sketch:type="MSLayerGroup" stroke="#979797" fill="#D8D8D8">
            <rect id="Rectangle-1" sketch:type="MSShapeGroup" x="0" y="0" width="47" height="47"></rect>
            <rect id="Rectangle-1" sketch:type="MSShapeGroup" x="60" y="0" width="47" height="47"></rect>
            <rect id="Rectangle-1" sketch:type="MSShapeGroup" x="120" y="0" width="47" height="47"></rect>
            <rect id="Rectangle-1" sketch:type="MSShapeGroup" x="180" y="0" width="47" height="47"></rect>
            <rect id="Rectangle-1" sketch:type="MSShapeGroup" x="0" y="60" width="47" height="47"></rect>
            <rect id="Rectangle-1" sketch:type="MSShapeGroup" x="60" y="60" width="47" height="47"></rect>
            <rect id="Rectangle-1" sketch:type="MSShapeGroup" x="120" y="60" width="47" height="47"></rect>
            <rect id="Rectangle-1" sketch:type="MSShapeGroup" x="180" y="60" width="47" height="47"></rect>
            <rect id="Rectangle-1" sketch:type="MSShapeGroup" x="0" y="120" width="47" height="47"></rect>
            <rect id="Rectangle-1" sketch:type="MSShapeGroup" x="60" y="120" width="47" height="47"></rect>
            <rect id="Rectangle-1" sketch:type="MSShapeGroup" x="120" y="120" width="47" height="47"></rect>
            <rect id="Rectangle-1" sketch:type="MSShapeGroup" x="180" y="120" width="47" height="47"></rect>
            <rect id="Rectangle-1" sketch:type="MSShapeGroup" x="0" y="180" width="47" height="47"></rect>
            <rect id="Rectangle-1" sketch:type="MSShapeGroup" x="60" y="180" width="47" height="47"></rect>
            <rect id="Rectangle-1" sketch:type="MSShapeGroup" x="120" y="180" width="47" height="47"></rect>
            <rect id="Rectangle-1" sketch:type="MSShapeGroup" x="180" y="180" width="47" height="47"></rect>
        </g>
    </g>
</svg>