<?xml version="1.0" encoding="UTF-8" standalone="no"?>
<svg width="178px" height="178px" viewBox="0 0 178 178" version="1.1" xmlns="http://www.w3.org/2000/svg" xmlns:xlink="http://www.w3.org/1999/xlink" xmlns:sketch="http://www.bohemiancoding.com/sketch/ns">
    <!-- Generator: Sketch 3.4.4 (17249) - http://www.bohemiancoding.com/sketch -->
    <title>Oval 1 + ? + 1450215850_free-08</title>
    <desc>Created with Sketch.</desc>
    <defs></defs>
    <g id="Page-1" stroke="none" stroke-width="1" fill="none" fill-rule="evenodd" sketch:type="MSPage">
        <g id="Oval-1-+-?-+-1450215850_free-08" sketch:type="MSLayerGroup" transform="translate(3.000000, 3.000000)">
            <g id="Oval-1-+-?" stroke="#E94F10" stroke-width="5" sketch:type="MSShapeGroup">
                <circle id="Oval-1" cx="86" cy="86" r="86"></circle>
            </g>
            <g id="1450215850_free-08" transform="translate(50.000000, 32.000000)" fill="#E94F10" sketch:type="MSShapeGroup">
                <g id="Layer_1">
                    <path d="M49,85 L49,95 L45,95 L45,98 L44.1,98 L41.5,98 L40.4,100.3 C39.7,101.9 38.1,102.9 36.3,102.9 C34.5,102.9 32.9,101.9 32.2,100.3 L31.1,98 L28.5,98 L27,98 L27,95 L23.3,95 L23,95 L23,85 L49,85 L49,85 Z M50.7,81 L21.9,81 C20.2,82 19,82.7 19,84.5 L19,95.3 C19,97.2 20.3,99 22.1,99 L23.2,99 C23.2,101 24.3,102 25.7,102 L28.4,102 C29.7,105 32.7,107.1 36.2,107.1 C39.7,107.1 42.6,105 44,102 L46.8,102 C48.2,102 49.3,101 49.3,99 L50.4,99 C52.3,99 52.9,97.2 52.9,95.3 L52.9,84.5 C53,82.7 52.3,81 50.7,81 L50.7,81 L50.7,81 Z" id="Shape"></path>
                    <path d="M36.3,4 C44.6,4 52.7,7.6 58.5,13.7 C71.1,26.9 71.1,45.4 58.5,58 C52.5,64 49.3,70 47.7,75 L24.9,75 C23.3,71 20.2,64.3 14,58 C1.4,45.5 1.4,26.9 14,13.7 C20,7.4 27.9,4 36.3,4 L36.3,4 Z M36.3,0 C26.8,0 17.8,3.9 11.1,11 C-3,25.8 -3,46.7 11.2,60.9 C17.6,67.3 20.7,74 21.9,79 L50.6,79 L50.6,79.2 C51.9,74.2 54.9,67.4 61.3,61 C75.5,46.8 75.6,25.8 61.4,11 C54.8,4 45.7,0 36.3,0 L36.3,0 L36.3,0 Z" id="Shape"></path>
                    <path d="M47.8,43.8 C47.4,43.4 46.8,43.4 46.4,43.8 L36.1,54 L25.7,43.6 C25.3,43.2 24.7,43.2 24.3,43.6 C23.9,44 23.9,44.6 24.2,45 L35,55.8 L35,69.9 C35,70.5 35.4,70.9 36,70.9 C36.6,70.9 37,70.5 37,69.9 L37,55.8 L47.7,45.1 C48.1,44.8 48.2,44.1 47.8,43.8 L47.8,43.8 Z" id="Shape"></path>
                </g>
            </g>
        </g>
    </g>
</svg>